<?xml version="1.0" standalone="no"?>
<!DOCTYPE svg PUBLIC "-//W3C//DTD SVG 20010904//EN"
 "http://www.w3.org/TR/2001/REC-SVG-20010904/DTD/svg10.dtd">
<svg version="1.0" xmlns="http://www.w3.org/2000/svg"
 width="300.000000pt" height="311.000000pt" viewBox="0 0 300.000000 311.000000"
 preserveAspectRatio="xMidYMid meet">
<metadata>
Created by potrace 1.10, written by Peter Selinger 2001-2011
</metadata>
<g transform="translate(0.000000,311.000000) scale(0.100000,-0.100000)"
fill="#000000" stroke="none">
<path d="M990 3074 c-272 -96 -497 -245 -681 -450 -98 -111 -162 -207 -241
-363 -64 -126 -68 -139 -68 -200 l0 -66 30 87 c38 113 103 240 181 358 78 117
271 313 388 395 212 147 477 246 711 265 89 7 85 7 -65 7 -156 1 -162 0 -255
-33z"/>
<path d="M1620 3100 c550 -42 1061 -431 1270 -967 53 -134 91 -294 100 -418 7
-99 7 -99 9 57 1 156 1 159 -35 265 -86 261 -207 458 -398 649 -190 189 -378
307 -633 393 -88 30 -97 31 -250 30 -152 -2 -154 -2 -63 -9z"/>
<path d="M1260 3033 c-138 -44 -217 -97 -355 -239 -87 -90 -130 -160 -172
-282 -25 -72 -63 -215 -63 -240 0 -1 9 3 20 10 11 7 20 21 20 31 0 10 26 67
58 125 32 59 64 122 71 140 7 17 16 32 20 32 3 0 7 15 8 33 l1 32 -14 -40 c-8
-22 -19 -44 -24 -49 -6 -6 -10 -18 -10 -27 0 -10 -4 -19 -9 -21 -5 -1 -23 -31
-39 -66 -19 -41 -32 -57 -36 -47 -3 8 -1 15 3 15 5 0 7 9 4 20 -3 11 -1 20 3
20 5 0 10 13 11 29 2 33 39 109 75 157 34 46 152 174 160 174 17 0 147 88 140
95 -4 5 1 5 10 2 10 -3 20 -2 23 3 4 6 0 10 -7 10 -22 0 29 30 63 37 23 4 30
3 25 -5 -7 -11 5 -16 30 -13 6 1 17 -5 23 -13 7 -8 20 -12 28 -9 12 5 14 3 8
-7 -5 -9 -4 -11 3 -6 7 4 12 11 12 16 0 10 -72 45 -105 52 -12 2 -2 7 28 14
38 9 47 9 47 -2 0 -8 5 -14 11 -14 5 0 7 5 4 10 -3 6 -2 10 4 10 5 0 14 -7 19
-16 8 -14 10 -13 22 3 8 10 11 15 6 11 -5 -4 -20 2 -34 12 -28 23 -31 23 -92
3z"/>
<path d="M1403 2980 c-55 -24 -58 -48 -5 -41 20 2 31 6 25 8 -32 11 -7 18 60
17 76 -1 112 -14 176 -62 19 -14 31 -20 27 -14 -12 20 2 13 51 -24 27 -21 47
-41 45 -46 -1 -5 3 -6 9 -2 6 4 29 -13 54 -40 24 -25 49 -46 57 -46 10 0 9 -3
-2 -10 -13 -9 -8 -14 12 -11 4 0 10 -8 13 -19 4 -11 11 -20 16 -20 5 0 9 -4 9
-9 0 -5 18 -40 39 -78 22 -37 49 -94 61 -125 12 -32 27 -58 33 -58 9 0 9 -2 0
-8 -8 -5 -8 -13 2 -32 12 -21 15 -22 20 -8 4 9 2 25 -4 37 -6 11 -11 31 -11
45 0 13 -6 31 -12 38 -7 7 -30 47 -51 88 -66 130 -80 152 -147 221 -100 104
-251 191 -361 209 -78 12 -66 13 -116 -10z"/>
<path d="M971 2708 c-39 -70 -40 -71 -9 -33 18 22 45 52 59 67 21 21 23 28 12
32 -8 3 -16 6 -18 6 -2 0 -22 -33 -44 -72z"/>
<path d="M1075 2748 c-4 -10 -13 -18 -21 -18 -8 0 -14 -4 -14 -10 0 -5 -8 -18
-17 -28 -36 -38 -51 -60 -46 -66 4 -3 1 -6 -5 -6 -7 0 -12 -5 -12 -11 0 -7
-16 -34 -35 -60 -19 -27 -35 -55 -35 -62 0 -8 4 -7 10 3 5 8 10 11 10 5 -1
-13 -26 -46 -31 -41 -2 3 -5 -5 -6 -17 -5 -65 -36 -205 -50 -226 -14 -22 -14
-25 1 -37 10 -7 13 -13 6 -16 -6 -2 -11 -23 -10 -48 1 -25 2 -66 2 -92 1 -27
5 -48 10 -48 4 0 8 -7 8 -15 0 -8 5 -15 10 -15 14 0 12 23 -2 39 -10 11 -10
14 0 18 7 3 12 22 12 46 0 32 -3 38 -11 27 -8 -11 -9 -8 -5 15 3 17 8 62 11
100 11 117 44 245 87 333 23 45 46 86 52 90 12 8 32 37 45 68 5 11 23 27 40
36 28 13 30 16 17 34 -14 18 -15 18 -21 2z"/>
<path d="M796 2585 c-15 -25 -25 -53 -23 -63 4 -16 5 -15 6 1 0 9 13 36 27 58
14 23 23 43 21 45 -3 3 -17 -16 -31 -41z"/>
<path d="M1901 2505 c0 -11 8 -38 19 -60 l20 -40 -6 35 c-4 19 -10 37 -14 40
-4 3 -10 14 -13 25 -5 20 -5 20 -6 0z"/>
<path d="M1490 2392 c-14 -2 -29 -8 -34 -12 -14 -14 14 -42 33 -34 9 3 46 6
84 6 37 -1 67 3 67 7 0 28 -71 43 -150 33z"/>
<path d="M1826 2370 c4 -19 8 -42 9 -50 1 -8 7 -26 12 -40 6 -14 8 -31 6 -38
-3 -7 1 -20 8 -28 10 -12 14 -52 14 -140 0 -114 6 -151 17 -106 5 18 0 187 -6
237 -6 45 -47 179 -58 190 -7 7 -8 -2 -2 -25z"/>
<path d="M1647 2374 c3 -8 15 -14 27 -14 32 0 66 -11 61 -20 -3 -4 2 -11 10
-14 13 -5 14 -2 5 15 -17 31 -115 62 -103 33z"/>
<path d="M1023 2373 c-13 -3 -23 -8 -23 -13 0 -5 -6 -7 -13 -4 -8 3 -20 -3
-28 -13 -12 -16 -12 -17 2 -6 9 8 19 9 25 3 5 -5 50 -9 99 -10 126 -2 133 -1
117 9 -8 4 -14 12 -15 17 -1 5 -9 8 -17 7 -8 -1 -22 0 -30 3 -20 8 -90 12
-117 7z"/>
<path d="M2109 2314 c-3 -10 6 -39 18 -64 27 -53 29 -44 4 29 -12 38 -19 49
-22 35z"/>
<path d="M683 2258 c-5 -7 -15 -32 -22 -55 -6 -24 -16 -43 -20 -43 -8 0 -13
-25 -31 -150 -10 -78 -24 -424 -20 -495 2 -27 3 -62 3 -77 0 -16 3 -28 7 -28
9 0 20 37 19 65 0 20 0 20 -10 0 -6 -14 -8 -1 -4 40 3 33 8 83 11 110 2 28 7
65 10 83 3 17 1 32 -3 32 -4 0 -9 21 -10 47 -1 34 1 43 8 32 8 -10 9 -2 5 27
-3 23 -1 56 5 74 9 24 9 34 0 39 -9 6 -5 28 14 84 14 41 25 85 25 96 0 11 5
23 11 26 6 4 8 13 5 21 -3 7 -2 15 2 18 8 5 15 66 8 66 -2 0 -8 -6 -13 -12z"/>
<path d="M1515 2258 c-27 -15 -65 -50 -65 -60 0 -4 7 -8 15 -8 8 0 15 6 15 14
0 7 11 21 24 29 22 15 24 14 34 -9 16 -33 58 -33 74 1 9 19 14 22 25 14 8 -8
10 -16 4 -23 -7 -8 1 -10 30 -8 21 2 39 7 39 11 0 4 -20 17 -45 29 -49 24
-117 28 -150 10z"/>
<path d="M1039 2251 c-32 -11 -79 -41 -79 -52 0 -4 8 -8 18 -8 9 1 28 -2 42
-6 25 -6 25 -6 3 7 -22 13 -22 14 -3 26 26 16 41 15 34 -1 -6 -18 20 -40 42
-35 9 2 22 12 28 23 6 11 12 22 13 24 2 2 12 -4 24 -15 l21 -19 -24 -6 c-18
-6 -16 -7 15 -8 47 -1 47 12 -2 43 -44 28 -95 38 -132 27z"/>
<path d="M752 2098 c-20 -25 -24 -58 -8 -58 9 0 13 6 10 14 -3 8 -1 24 6 35
12 23 8 28 -8 9z"/>
<path d="M2147 2104 c-3 -3 1 -23 8 -45 10 -26 11 -39 3 -39 -7 0 -8 -12 -4
-32 4 -18 10 -44 12 -58 3 -14 11 -46 19 -72 7 -25 11 -48 9 -51 -3 -2 1 -17
7 -33 6 -16 13 -40 15 -54 2 -14 12 -32 24 -42 19 -15 29 -35 13 -25 -5 3 -8
-8 -9 -25 -1 -16 2 -25 6 -19 8 13 30 -30 30 -58 0 -11 7 -22 16 -25 8 -3 12
-11 8 -17 -5 -8 -3 -9 6 -4 10 6 12 4 7 -9 -5 -11 -3 -15 5 -10 8 5 9 2 5 -10
-4 -10 -3 -15 3 -11 6 3 10 -5 10 -20 0 -14 6 -41 14 -59 7 -18 17 -52 21 -75
4 -22 10 -41 13 -41 4 0 7 -11 7 -24 0 -16 -5 -22 -15 -19 -11 3 -10 1 2 -6 9
-6 15 -20 13 -31 -2 -11 2 -20 8 -20 7 0 6 -4 -3 -11 -10 -7 -11 -12 -4 -15 7
-3 10 -13 7 -23 -3 -13 2 -20 17 -24 15 -4 21 -11 17 -20 -8 -22 72 -85 92
-72 5 3 13 -7 19 -23 9 -27 20 -42 97 -129 22 -25 39 -50 37 -55 -1 -5 5 -11
14 -15 9 -3 11 -8 6 -12 -7 -4 -6 -14 1 -28 9 -16 16 -20 27 -13 23 14 -30
113 -101 189 -32 35 -59 70 -59 77 0 7 -22 25 -50 40 -27 15 -50 31 -50 36 0
5 -4 6 -10 3 -5 -3 -7 0 -4 9 3 8 1 23 -4 33 -6 10 -13 41 -16 68 -10 75 -51
217 -60 208 -5 -4 -6 2 -3 15 3 12 1 20 -4 16 -5 -3 -9 6 -9 20 0 14 -4 28
-10 31 -5 3 -10 14 -10 25 0 10 -6 20 -14 23 -15 6 -61 95 -53 103 3 3 12 -7
21 -23 8 -15 15 -25 16 -20 0 4 -13 31 -30 60 -29 52 -39 83 -22 73 4 -3 3 15
-2 40 -6 24 -14 44 -19 44 -4 0 -5 -4 -2 -10 3 -5 -2 -10 -11 -10 -10 0 -15 3
-11 6 3 3 2 17 -4 31 -6 16 -6 22 1 18 6 -3 10 0 10 7 0 7 3 24 5 38 5 21 4
22 -4 5 -7 -17 -10 -13 -20 25 -6 25 -16 55 -21 68 -7 16 -7 21 0 17 14 -9 13
-3 -9 54 -11 27 -17 52 -14 55 4 3 4 6 1 6 -2 0 -7 -3 -11 -6z"/>
<path d="M794 1903 c3 -26 5 -51 5 -55 1 -5 4 -7 9 -6 4 2 22 -10 40 -26 21
-20 30 -35 27 -47 -3 -10 1 -32 9 -48 9 -17 16 -39 16 -51 0 -11 5 -20 10 -20
6 0 10 -4 10 -9 0 -15 60 -101 71 -101 5 0 9 -5 9 -11 0 -15 36 -60 43 -53 3
3 16 -3 28 -15 12 -11 26 -18 32 -14 5 3 12 1 16 -4 7 -11 75 -53 85 -53 16 0
-7 20 -57 48 -28 16 -82 61 -120 100 -69 73 -106 137 -128 227 -7 28 -20 55
-28 62 -11 8 -12 12 -3 13 6 0 12 5 12 11 0 8 -5 8 -15 -1 -11 -9 -18 -10 -29
-1 -16 13 -29 54 -15 45 5 -3 9 0 9 5 0 6 -4 11 -10 11 -5 0 -10 6 -10 14 0 8
-5 18 -10 21 -7 4 -9 -10 -6 -42z"/>
<path d="M1955 1924 c22 -22 15 -47 -15 -54 l-25 -6 24 -7 c32 -8 41 -1 41 32
0 27 -16 51 -33 51 -5 0 -1 -7 8 -16z"/>
<path d="M340 1899 c0 -32 14 -32 23 0 3 12 -1 22 -9 25 -10 4 -14 -3 -14 -25z"/>
<path d="M1403 1915 c-40 -17 -42 -25 -5 -19 40 7 52 12 52 24 0 13 -8 12 -47
-5z"/>
<path d="M1225 1910 c-3 -5 7 -13 22 -16 15 -4 40 -16 54 -27 15 -10 34 -17
43 -15 23 4 16 24 -8 20 -11 -1 -26 4 -35 12 -24 21 -69 37 -76 26z"/>
<path d="M1865 1807 c-11 -66 -35 -128 -67 -177 -30 -43 -30 -48 -25 -129 7
-98 29 -140 101 -192 26 -18 46 -37 46 -42 0 -28 -197 -176 -307 -231 -106
-53 -301 -116 -357 -116 -65 0 -133 30 -177 77 -30 33 -39 38 -39 23 0 -10 7
-26 16 -34 8 -9 12 -21 8 -27 -4 -8 -3 -9 4 -5 11 7 19 2 61 -34 9 -8 32 -16
51 -18 19 -1 38 -6 43 -11 9 -9 112 13 165 35 19 8 49 17 66 19 40 7 139 47
148 60 4 5 8 6 8 1 0 -5 6 -4 13 2 25 20 105 61 111 57 3 -3 4 -2 1 1 -2 4 13
18 35 33 58 39 137 115 154 150 16 30 16 31 -12 45 -40 21 -91 75 -108 116
-17 40 -22 169 -7 178 16 11 72 126 78 163 3 18 10 38 15 44 4 5 10 14 12 20
1 5 8 10 13 11 6 0 16 2 23 2 6 1 12 7 12 12 0 7 -6 8 -17 1 -10 -5 -26 -5
-39 -1 -20 8 -23 5 -29 -33z"/>
<path d="M330 1805 c0 -46 14 -46 17 0 1 19 -3 35 -8 35 -5 0 -9 -16 -9 -35z"/>
<path d="M1400 1793 c0 -8 -10 -11 -29 -7 -16 3 -38 1 -49 -5 -16 -9 -24 -8
-34 2 -11 12 -18 11 -44 -4 -18 -10 -41 -15 -51 -13 -11 3 -26 -3 -37 -15 -16
-17 -17 -23 -6 -36 7 -9 15 -13 18 -11 2 3 19 -2 36 -11 52 -28 242 -14 262
19 5 8 1 9 -12 4 -51 -22 -199 -28 -239 -11 -34 14 -17 37 29 40 20 1 39 5 42
8 4 3 16 2 28 -3 12 -4 29 -4 38 1 24 13 121 20 138 9 12 -8 13 -13 2 -30 -15
-24 -10 -25 28 -5 36 19 37 25 5 55 -19 18 -37 24 -75 24 -33 1 -50 -3 -50
-11z"/>
<path d="M1320 1592 c-19 -2 -39 -8 -44 -13 -15 -14 87 -11 107 4 16 11 15 12
-5 12 -13 0 -39 -1 -58 -3z"/>
<path d="M1690 1526 c-36 -29 -92 -68 -125 -86 -33 -18 -74 -41 -91 -51 -33
-18 -46 -20 -136 -20 -45 0 -56 -3 -51 -15 3 -8 8 -14 12 -15 3 0 18 -3 32 -5
14 -2 39 2 55 11 16 8 36 15 45 15 35 0 148 54 162 77 4 7 12 13 16 13 9 0 39
24 115 92 59 54 42 45 -34 -16z"/>
<path d="M2988 1390 c-23 -372 -237 -778 -548 -1041 -212 -179 -513 -310 -782
-338 l-83 -8 88 -2 c93 -1 130 7 292 61 154 51 368 173 503 286 108 90 280
283 359 401 50 76 95 176 143 320 l41 123 -3 152 -3 151 -7 -105z"/>
<path d="M619 1383 c-2 -24 -2 -25 -6 -5 -5 26 -23 30 -19 5 2 -10 -3 -40 -11
-67 -8 -27 -17 -59 -19 -70 -2 -11 -9 -23 -15 -26 -6 -4 -10 -10 -10 -14 3
-23 0 -30 -8 -18 -7 11 -9 11 -14 -1 -4 -11 0 -15 14 -12 10 2 19 -1 19 -8 0
-6 11 4 24 22 24 32 24 32 28 9 3 -12 4 0 4 29 -1 28 -4 49 -8 46 -5 -2 -8 -8
-8 -12 0 -15 -31 -83 -36 -79 -2 3 5 25 16 49 11 24 20 54 20 67 0 33 16 27
27 -10 8 -28 10 -22 10 45 0 74 -6 106 -8 50z"/>
<path d="M1072 1378 c-1 -7 -4 -29 -6 -48 -6 -52 -10 -65 -29 -93 -9 -15 -17
-37 -17 -49 0 -37 47 73 59 139 13 68 13 63 3 63 -5 0 -9 -6 -10 -12z"/>
<path d="M1370 1235 c-31 -12 -32 -14 -10 -14 14 0 36 6 50 14 31 18 7 18 -40
0z"/>
<path d="M506 1149 c2 -4 -1 -13 -8 -21 -30 -32 -57 -77 -50 -82 5 -3 19 12
31 34 22 40 41 59 41 42 0 -5 -11 -25 -24 -45 -13 -19 -27 -46 -30 -58 l-6
-24 11 23 c7 12 16 22 20 22 5 0 18 21 30 48 12 26 24 52 27 57 3 6 -3 3 -13
-5 -17 -13 -18 -13 -13 1 4 9 1 16 -8 16 -7 0 -11 -4 -8 -8z"/>
<path d="M2240 1156 c0 -8 82 -46 99 -46 10 0 4 8 -13 19 -17 11 -33 18 -38
15 -4 -3 -17 0 -28 6 -11 6 -20 8 -20 6z"/>
<path d="M1035 1117 c1 -19 5 -39 9 -45 3 -6 1 -13 -4 -15 -6 -3 -5 -4 2 -3 9
2 12 16 10 42 -5 49 -20 68 -17 21z"/>
<path d="M0 1053 c0 -52 7 -76 44 -157 25 -53 66 -125 93 -161 26 -35 64 -87
83 -115 128 -187 342 -365 575 -480 205 -100 348 -141 492 -139 l98 2 -95 8
c-336 28 -697 215 -944 489 -81 90 -92 104 -151 195 -69 105 -129 225 -165
333 l-30 87 0 -62z"/>
<path d="M392 1037 c-6 -6 -13 -23 -17 -37 -4 -16 -25 -36 -56 -55 -52 -30
-127 -103 -148 -143 -15 -28 2 -29 28 -3 11 11 22 16 26 13 4 -4 5 -2 3 4 -2
6 23 37 56 70 50 51 56 54 41 26 -9 -19 -14 -40 -11 -48 3 -8 2 -12 -4 -9 -5
3 -9 -3 -9 -12 1 -33 -11 -127 -18 -148 -10 -30 -11 -75 -1 -81 4 -3 8 9 8 25
0 17 11 73 24 124 13 50 27 109 31 130 3 21 10 35 16 32 5 -4 9 3 9 14 0 10 5
21 11 23 5 2 19 22 29 46 15 32 16 42 6 42 -8 0 -18 -6 -24 -13z"/>
<path d="M379 848 c-7 -29 -11 -48 -14 -71 -3 -16 -8 -34 -11 -40 -5 -9 -4 -9
5 -1 18 16 42 102 30 109 -5 4 -9 5 -10 3z"/>
</g>
</svg>
